<?xml version="1.0" encoding="utf-8"?>
<!-- Generator: Adobe Illustrator 24.0.3, SVG Export Plug-In . SVG Version: 6.00 Build 0)  -->
<svg version="1.1" xmlns="http://www.w3.org/2000/svg" xmlns:xlink="http://www.w3.org/1999/xlink" x="0px" y="0px"
	 viewBox="0 0 1024 1024" style="enable-background:new 0 0 1024 1024;" xml:space="preserve">
<style type="text/css">
	.st0{display:none;}
	.st1{display:inline;}
</style>
<g id="Layer_1" class="st0">
	<path class="st1" d="M67.54,14.33c-0.04,3.5,9.8,7.37,9.76,10.86c-0.1,9.64-0.18,10.4-0.27,20.04c-0.03,2.9-0.2,5.82,0.07,8.7
		c0.47,4.9-0.52,8.38-5.72,10.58c-1.95,0.82-3.37,4.55-3.72,7.13c-0.62,4.52-0.72,9.26-0.07,13.76c0.32,2.2,2.4,5.13,4.39,5.9
		c4.84,1.87,5.05,5.58,5.14,9.53c0.09,3.97,0.04,8.03-4.58,9.87c-3.88,1.54-5.15,4.48-5.14,8.5c0.06,42.65,0.06,85.31-0.02,127.96
		c-0.01,3.61,1.13,5.97,4.79,6.69c3.7,0.72,4.92,3.06,4.91,6.62c-0.07,23.2-0.08,46.41-0.02,69.61c0.01,3.94-1.27,6.41-5.38,7.45
		c-1.5,0.38-3.71,2.23-3.69,3.39c0.02,1.64,1.61,3.44,2.9,4.81c0.87,0.92,2.69,0.94,3.56,1.86c1.07,1.12,2.18,2.78,2.15,4.18
		c-0.03,1.05-1.72,2.77-2.87,2.96c-5.27,0.9-6.27,4.27-6.24,8.9c0.11,13.65,0.06,27.3-0.05,40.95c-0.03,3.61,1.35,5.96,4.93,6.66
		c3.78,0.74,4.79,3.1,4.77,6.65c-0.08,16.38-0.03,32.76,0.01,49.14c0.01,4.06-1.12,7.17-5.25,9c-5.08,2.25-4.54,6.95-4.37,11.49
		c0.15,4.09,1.7,6.48,5.76,7.96c1.79,0.65,3.83,3.58,3.88,5.52c0.3,10.9-0.06,21.83,0,32.74c0.02,3.69-1.36,5.75-5,6.49
		c-3.35,0.68-4.68,2.96-4.68,6.33c0.01,26.27-0.16,52.55,0.14,78.82c0.03,2.49,2.26,5.92,4.46,7.19c3.89,2.26,5.26,5.13,4.98,9.18
		c-0.34,4.94,0.28,9.27,5.76,11.18c0.46,0.16,1.02,0.52,1.19,0.93c3.6,8.34,10.87,6.49,17.58,6.49c77.8-0.03,155.6-0.01,233.41-0.01
		c4.26,0,8.53-0.04,12.79-0.14c3.14-0.08,4.85,1.18,6.02,4.3c0.78,2.08,2.85,4.48,4.86,5.12c4.1,1.32,5.11,3.71,5.1,7.62
		c-0.11,26.1-0.07,52.21-0.08,78.31c0,1.54-0.01,3.07,0.01,4.61c0.16,10.66-0.41,11.21-10.98,11.16
		c-9.04-0.04-18.09-0.07-27.13,0.05c-4.49,0.06-7.05-2.04-10.11-5.42c-4.12-4.56-6.41-11.26-13.56-13.1
		c-1.5-0.38-3.03-4.07-3.02-6.22c0.04-5.66-0.41-10.64-6.6-12.97c-0.3-0.11-0.66-0.39-0.75-0.66c-2.88-8.66-9.9-7.76-16.83-7.51
		c-7.84,0.28-15.69,0.21-23.54,0.26c-4.45,0.03-7.86-0.86-8.87-6.34c-0.31-1.69-3.82-3.97-5.88-3.98
		c-28.31-0.18-56.62,0.02-84.94,0.04c-4.98,0-9.74-0.35-10.44,6.62c-0.13,1.29-2.4,3.12-3.9,3.37c-3.15,0.53-6.6,0.78-9.61-0.04
		c-1.72-0.47-2.74-3.31-4.22-4.96c-1.52-1.69-3.23-4.51-4.82-4.49c-1.71,0.02-4.35,2.51-4.87,4.4c-1.13,4.08-3.21,5.47-7.29,5.44
		c-16.54-0.13-33.09-0.11-49.63,0.01c-4.13,0.03-6.95-1.05-7.73-5.55c-0.89-5.12-5-4.9-8.77-4.89c-6.99,0.03-13.98,0.32-20.97,0.32
		c-6,0-7.61-1.72-7.59-7.63c0.02-4.26,0.25-8.53,0.13-12.79c-0.12-4.4-1.8-7.63-6.91-7.73c-3.6-0.07-4.89-1.87-4.86-5.54
		c0.15-17.57,0.14-35.15,0-52.72c-0.03-3.61,1.42-4.94,4.77-4.86c5.01,0.11,6.97-2.58,6.97-7.36c-0.01-16.72,0.18-33.44,0.07-50.15
		c-0.04-6.58-1.35-7.93-7.88-8.89c-3.05-0.45-3.9-1.9-3.89-4.75c0.07-23.89,0.1-47.77,0.01-71.66c-0.01-3.41,1.43-4.8,4.59-5.47
		c5.79-1.22,7.28-3.33,7.28-9.15c-0.01-59.71-0.02-119.43,0.04-179.14c0-4.03-1.69-6.31-5.68-6.17c-5.26,0.19-6.37-2.26-6.3-7.15
		c0.28-18.25,0.18-36.51,0.02-54.77c-0.04-3.99,0.65-6.58,5.31-6.72c5.56-0.17,6.47-4.33,6.52-8.65c0.1-8.36-0.09-16.72-0.12-25.08
		c-0.03-8.36-0.08-16.72,0.02-25.08c0.06-4.83-2-7.43-6.94-7.42c-3.3,0.01-4.81-1.21-4.8-4.86C0.13,95.76,0.11,49.53,0.12,3.29
		c0-0.83,0.11-1.66,0.22-3.23l67.19-0.05V14.33z"/>
	<path class="st1" d="M1023.99,1022.92c-4.12,1.47-5.01-0.26-5.33-3.16c-0.82-7.48-1.4-7.86-8.9-7.66
		c-3.92,0.11-7.85-0.14-11.76,0.02c-4.34,0.18-7.19,1.98-6.66,6.99c0.36,3.44-1.22,4.81-4.76,4.8c-24.22-0.1-98.76-0.09-122.98-0.01
		c-3.32,0.01-5.38-0.96-5-4.58c0.57-5.35-2.65-7.03-7.05-7.24c-4.93-0.23-9.89-0.18-14.83-0.01c-4.06,0.14-6.32,2.39-6.15,6.57
		c0.16,3.93-1.52,5.44-5.48,5.27c-5.79-0.24-11.6-0.19-17.39,0.01c-3.41,0.12-4.44-1.44-4.58-4.53c-0.27-5.95-1.95-7.49-7.65-7.43
		c-5.2,0.05-6.46,1.37-6.75,7.72c-0.13,2.91-1.06,4.31-4.23,4.27c-2.95-0.04-4.53-0.95-4.46-4.05c0.03-1.19,0.4-2.78-0.21-3.49
		c-1.41-1.66-3.31-3.96-5.03-3.98c-1.53-0.02-4.06,2.45-4.48,4.22c-1.7,7.16-1.46,7.21-8.64,7.2c-13.48-0.01-26.96-0.16-40.43,0.09
		c-4.3,0.08-6.4-1.04-6.16-5.6c0.17-3.12-0.58-6.14-4.47-6.11c-3.71,0.03-5.56,2.44-5.28,6.1c0.32,4.19-1.35,5.7-5.58,5.62
		c-11.77-0.22-23.54-0.22-35.31-0.04c-3.78,0.06-5.06-1.35-5.24-4.99c-0.29-5.81-1.8-6.96-7.69-6.85c-1.36,0.03-2.74,0.16-4.09,0.06
		c-4.59-0.35-6.82,1.83-6.54,6.31c0.27,4.27-1.51,5.92-5.68,5.43c-1.51-0.18-3.08-0.11-4.6,0.03c-5.02,0.45-8.54-0.17-8.02-6.83
		c0.34-4.25-3.75-4.85-7.03-4.95c-5.79-0.16-11.6,0.08-17.39,0.08c-4.6,0-9.21-0.19-13.81-0.18c-6.44,0.01-7.95,1.48-8.49,7.86
		c-0.1,1.16-0.49,2.3-0.72,3.36c-7.43,1.36-7.65,1.29-7.92-5.47c-0.15-3.64-1.94-5.32-5.35-5.47c-3.06-0.14-6.14-0.09-9.2-0.09
		c-45.2-0.05-90.41-0.06-135.61-0.2c-4.94-0.02-7.35,1.87-7.31,6.86c0.02,2.71-0.29,5.01-4.07,4.99
		c-22.17-0.1-44.35-0.06-66.52-0.08c-0.67,0-1.33-0.22-2.22-0.38c-0.27-1.11-0.72-2.22-0.81-3.37c-0.54-6.66-1.69-7.91-8.34-7.97
		c-4.26-0.04-8.52,0.28-12.78,0.47c-3.73,0.16-5.89-1.31-7.11-5.11c-0.64-1.98-3.1-3.38-4.78-5.01c-1.37-1.32-4.08-2.79-3.91-3.83
		c0.28-1.73,2.3-3.25,3.75-4.69c0.55-0.54,1.88-0.39,2.3-0.96c1.14-1.54,2.7-3.29,2.71-4.96c0.01-1.08-2.26-2.76-3.77-3.15
		c-2.76-0.72-6.14-1.11-5.42-4.6c0.48-2.32,2.77-5.13,4.96-6.06c3.66-1.56,4.82-3.7,4.79-7.39c-0.16-16.2-0.17-32.41-0.25-48.61
		c-0.03-5.89,1.7-7.7,7.51-7.71c12.96-0.01,25.93-0.01,38.89,0c7.56,0.01,9.54,1.92,8.96,9.39c-0.33,4.21,0.26,7.35,4.95,8.66
		c3.71,1.03,4.27,4.15,3.8,7.41c-0.79,5.49,0.03,9.78,6.3,11.53c1.21,0.34,2.29,2.46,2.74,3.96c1.18,3.94,3.64,5.23,7.62,5.22
		c51.17-0.12,102.35-0.16,153.52-0.17c138.69-0.02,327.69,0,466.37-0.01c3.75,0,7.54-0.37,11.23,0.08c1.39,0.17,3.64,2.19,3.66,3.38
		C1024.05,980.85,1023.99,1001.82,1023.99,1022.92z"/>
	<path class="st1" d="M224.86,781.92c0,2.22,0.23,4.46-0.05,6.65c-0.71,5.56-0.38,10.21,6.58,11.57c1.27,0.25,2.61,2.63,3.01,4.26
		c1.03,4.2,3.68,5.35,7.57,5.1c4.07-0.26,8.16-0.53,12.24-0.53c64.81-0.04,129.62-0.04,194.43-0.02c2.21,0,4.42,0.19,6.63,0.35
		c4.96,0.37,9.18-0.05,10.31-6.34c0.27-1.5,2.62-3.46,4.25-3.71c3.31-0.52,6.93-0.59,10.11,0.3c1.73,0.48,3.38,3.12,4.04,5.12
		c1.04,3.14,2.78,4.5,5.93,4.44c4.94-0.09,9.93-0.55,14.82-0.04c2.3,0.24,4.54,2.16,6.56,3.65c1.45,1.07,2.24,3.42,3.76,3.95
		c5.08,1.77,5.92,5.66,5.93,10.16c0.02,6.99-0.09,13.99,0,20.98c0.05,3.7-1.12,6.32-5.02,7.15c-3.71,0.78-5.02,3.13-4.45,6.77
		c0.26,1.68,0.82,3.52,0.41,5.06c-0.56,2.08-1.78,5.47-2.98,5.58c-2.23,0.21-6.06-0.96-6.72-2.57c-2.35-5.73-6.36-5.91-11.54-5.68
		c-9.02,0.39-18.08,0.16-27.11-0.04c-3.68-0.08-5.81,1.2-7.69,4.53c-1.16,2.06-4.24,4.15-6.54,4.25
		c-10.9,0.45-21.82,0.13-32.74,0.27c-3.65,0.05-5.8-1.68-7.01-4.82c-1.23-3.19-3.54-4.23-6.8-4.23c-20.12,0-40.24-0.18-60.36-0.01
		c-1.77,0.01-4.34,1.62-5.13,3.2c-2.15,4.28-5.36,5.86-9.86,5.86c-22.68-0.04-45.37,0.08-68.05-0.23c-2.29-0.03-5.42-2.09-6.63-4.12
		c-1.91-3.2-3.91-4.72-7.63-4.7c-23.88,0.12-47.75-0.01-71.63,0.21c-13.44,0.12-13.81-0.03-13.73-13.86
		c0.03-5.46-0.07-10.92,0.13-16.37c0.12-3.3-0.97-5.24-4.08-6.81c-2.06-1.03-4.56-3.53-4.7-5.52c-0.3-4.26-2.07-9.65,3.65-12.15
		c3.91-1.71,5.12-4.65,5.04-8.57c-0.06-3.24-0.26-6.5,0.05-9.72c0.45-4.68-0.4-8.04-5.31-10.25c-4.47-2.01-5.12-14.91-1.09-17.88
		c1.39-1.03,3.89-1.19,5.72-0.87c4.75,0.83,8.18,0.32,10.13-5c0.64-1.76,3.76-3.63,5.8-3.7c11.24-0.37,22.51-0.21,33.76-0.21
		c0.68,0,1.38,0.02,2.03,0.19c3.99,1.01,14.02,14.01,14.03,18.15c0,3.41,0,6.82,0,10.23C224.91,781.92,224.89,781.92,224.86,781.92z
		"/>
	<path class="st1" d="M214.97,554.5c0,8.02,0.11,16.03-0.05,24.05c-0.08,3.72,1.05,5.83,4.79,7.32c2.16,0.86,4.41,3.67,4.93,5.98
		c0.75,3.31-2.34,4.2-5.2,4.95c-1.55,0.4-4.09,2.32-3.92,2.95c0.49,1.86,1.96,3.58,3.36,5.05c0.75,0.79,2.42,0.68,3.18,1.47
		c1.1,1.14,2.49,2.78,2.37,4.08c-0.11,1.27-1.78,3.12-3.08,3.44c-3.74,0.93-5.7,2.65-6.66,6.64c-0.41,1.72-3.94,3.77-6.1,3.83
		c-13.61,0.36-27.24,0.22-40.87,0.2c-3.85-0.01-6.8-1.01-8.07-5.46c-0.59-2.06-2.8-4.09-4.79-5.21c-2.93-1.65-4.06-3.62-4-6.95
		c0.18-10.4,0.22-20.8,0.03-31.19c-0.07-3.72,0.72-6.38,4.59-7.41c3.66-0.97,4.47-3.53,4.41-7.02c-0.19-10.4-0.07-20.81-0.25-31.21
		c-0.06-3.49,1.01-5.61,4.38-7.17c2.01-0.93,3.94-3.23,4.71-5.34c1.24-3.42,3.11-5.08,6.67-5.09c8.01-0.02,16.01-0.19,24.02-0.11
		c3.9,0.04,6.83,1.44,7.67,5.96c0.29,1.55,1.88,3.4,3.35,4.1c4.08,1.93,4.96,4.91,4.78,9.13c-0.33,7.66-0.09,15.35-0.09,23.02
		C215.07,554.5,215.02,554.5,214.97,554.5z"/>
	<path class="st1" d="M188.13,365.06c6.64,0,13.28,0,19.92,0.01c0.85,0,1.73-0.07,2.54,0.11c3.7,0.83,14.31,13.63,14.32,17.38
		c0.04,9.71,0.1,19.42-0.06,29.13c-0.13,8.09-1.54,9.28-9.79,9.14c-2.38-0.04-4.78-0.01-7.15-0.19c-5.2-0.4-9.45,0.04-12.01,5.93
		c-1.9,4.35-13.67,4.08-16.1-0.26c-2.67-4.79-6.06-6.21-11.32-5.42c-5.68,0.86-8.58-1.56-8.54-7.31c0.04-6.03-0.72-11.2-6.94-13.94
		c-0.55-0.24-0.96-0.97-1.29-1.55c-2.93-5.16-0.01-21.26,4.44-25.01c1.15-0.97,2.3-2.09,3.04-3.38c2.17-3.74,5.48-4.74,9.51-4.67
		C175.19,365.14,181.66,365.06,188.13,365.06z"/>
	<path class="st1" d="M635,864.71c-7.48,0-14.97-0.14-22.45,0.04c-6.02,0.15-8.92-2.05-9.01-8.37c-0.08-5.51-0.52-9.97-6.28-13.17
		c-4.91-2.73-3.05-13.82,2.13-16.22c0.92-0.43,2.44-0.8,2.59-1.44c1.51-6.55,8.45-8.22,11.76-13.2c1.16-1.74,3.99-3.24,6.11-3.31
		c10.89-0.35,21.79-0.2,32.69-0.22c0.51,0,1.19-0.18,1.51,0.07c4.59,3.7,10.07,6.8,13.35,11.44c2.03,2.87,1.13,8.17,0.64,12.27
		c-0.19,1.59-2.63,3.39-4.44,4.2c-3.47,1.56-4.83,3.93-4.74,7.59c0.11,4.93,0.22,9.87-0.1,14.78c-0.27,4.03-2.55,5.8-6.92,5.48
		c-5.58-0.41-11.22-0.1-16.83-0.1C635,864.61,635,864.66,635,864.71z"/>
</g>
<g id="Layer_2" class="st0">
	<g class="st1">
		<rect x="0" width="60" height="725.75"/>
		
			<rect x="633.99" y="633.78" transform="matrix(-1.836970e-16 1 -1 -1.836970e-16 1657.9883 330.0117)" width="60" height="720.44"/>
		
			<rect x="152.33" y="514.31" transform="matrix(-1.836970e-16 1 -1 -1.836970e-16 878.0812 513.4166)" width="60" height="362.87"/>
		
			<rect x="305.81" y="653.33" transform="matrix(-1.836970e-16 1 -1 -1.836970e-16 1170.5741 498.9508)" width="60" height="362.87"/>
		
			<rect x="303.77" y="665.75" transform="matrix(-1 -1.224647e-16 1.224647e-16 -1 667.539 1437.0536)" width="60" height="105.56"/>
		
			<rect x="303.77" y="918.44" transform="matrix(-1 -1.224647e-16 1.224647e-16 -1 667.539 1942.4442)" width="60" height="105.56"/>
		
			<rect x="154.37" y="759.21" transform="matrix(-1 -1.224647e-16 1.224647e-16 -1 368.7488 1623.9691)" width="60" height="105.56"/>
		
			<rect x="154.37" y="515.61" transform="matrix(-1 -1.224647e-16 1.224647e-16 -1 368.7488 1136.7659)" width="60" height="105.56"/>
		<rect x="154.37" y="367.5" transform="matrix(-1 -1.224647e-16 1.224647e-16 -1 368.7488 794.9955)" width="60" height="60"/>
		<rect x="601.53" y="804.76" transform="matrix(-1 -1.224647e-16 1.224647e-16 -1 1263.062 1669.5249)" width="60" height="60"/>
	</g>
</g>
<g id="Layer_3">
	<g>
		<polygon points="363.67,964 363.67,918.44 303.67,918.44 303.67,964 303.67,1024 363.67,1024 1024.1,1024 1024.1,964 		"/>
		<polygon points="517.15,804.76 214.27,804.76 214.27,759.21 154.27,759.21 154.27,804.76 154.27,864.76 214.27,864.76 
			517.15,864.76 		"/>
		<polygon points="303.67,771.3 363.67,771.3 363.67,725.75 363.67,665.75 303.67,665.75 59.9,665.75 59.9,0 -0.1,0 -0.1,725.75 
			0.79,725.75 59.9,725.75 303.67,725.75 		"/>
		<rect x="154.27" y="515.61" width="60" height="105.56"/>
		<rect x="154.27" y="367.5" width="60" height="60"/>
		<rect x="601.43" y="804.76" width="60" height="60"/>
	</g>
</g>
</svg>
