<?xml version="1.0" encoding="utf-8"?>
<!-- Generator: Adobe Illustrator 26.2.1, SVG Export Plug-In . SVG Version: 6.00 Build 0)  -->
<svg version="1.0" id="Layer_1" xmlns="http://www.w3.org/2000/svg" xmlns:xlink="http://www.w3.org/1999/xlink" x="0px" y="0px"
	 viewBox="0 0 612 792" enable-background="new 0 0 612 792" xml:space="preserve">
<g>
	
		<path fill="#EBF0F5" stroke="#EBF0F5" stroke-width="17" stroke-linecap="round" stroke-linejoin="round" stroke-miterlimit="10" d="
		M569.9,388.5c-0.1,144.3-118.6,261.7-264.2,261.7c-145.8,0-264.1-118.8-263.6-264.6c0.6-144.4,119.4-262.2,264.4-261.8
		C452.7,124.2,570,242.1,569.9,388.5z M554.9,387.7c0.2-136.9-110.3-248.1-247.2-248.7c-138.3-0.5-250.2,110-250.5,247.4
		c-0.3,137.5,111.4,249,249.2,248.8C443.5,635.1,554.7,524.3,554.9,387.7z"/>
	
		<path fill="#EBF0F5" stroke="#EBF0F5" stroke-width="17" stroke-linecap="round" stroke-linejoin="round" stroke-miterlimit="10" d="
		M177.7,381.7c0-17.9-0.5-35.9,0.4-53.8c0.2-3.8,5.4-7.3,8.3-10.9c2.4,3.4,7,6.8,7,10.3c0.5,35.9,0.5,71.7,0,107.6
		c-0.1,3.3-4.8,6.6-7.4,9.9c-2.7-3.8-7.7-7.4-7.9-11.3C177.3,416.2,177.8,398.9,177.7,381.7z"/>
	
		<path fill="#EBF0F5" stroke="#EBF0F5" stroke-width="17" stroke-linecap="round" stroke-linejoin="round" stroke-miterlimit="10" d="
		M434.3,381.8c0,16.6,0.6,33.2-0.4,49.8c-0.3,4.5-5.2,8.8-8,13.2c-2.6-4-7.4-8-7.5-12c-0.6-34.5-0.6-69,0-103.5
		c0.1-4.1,4.8-8.1,7.4-12.1c2.8,4.3,7.8,8.6,8,13C434.8,347.3,434.3,364.6,434.3,381.8z"/>
	
		<path fill="#EBF0F5" stroke="#EBF0F5" stroke-width="17" stroke-linecap="round" stroke-linejoin="round" stroke-miterlimit="10" d="
		M237.9,409.8c0-15.9-0.6-31.8,0.4-47.6c0.3-4.8,4.7-9.4,7.2-14c2.9,4.3,8.1,8.7,8.2,13.1c0.7,33.7,0.7,67.5,0,101.2
		c-0.1,4.4-5.3,8.7-8.2,13c-2.5-4.7-7-9.3-7.2-14.1C237.3,444.2,237.9,427,237.9,409.8z"/>
	
		<path fill="#EBF0F5" stroke="#EBF0F5" stroke-width="17" stroke-linecap="round" stroke-linejoin="round" stroke-miterlimit="10" d="
		M374.3,411.5c0,17.2,0.5,34.5-0.3,51.6c-0.2,4.3-4.4,8.4-6.7,12.5c-3.1-4.2-8.7-8.3-8.8-12.6c-0.7-34.4-0.6-68.9,0-103.3
		c0.1-3.9,5.1-7.7,7.8-11.5c2.7,3.8,7.5,7.6,7.7,11.6C374.8,377,374.3,394.3,374.3,411.5z"/>
	
		<path fill="#EBF0F5" stroke="#EBF0F5" stroke-width="17" stroke-linecap="round" stroke-linejoin="round" stroke-miterlimit="10" d="
		M297.9,443.2c0-17.2-0.5-34.4,0.4-51.6c0.2-4.1,4.8-7.9,7.4-11.9c2.8,3.7,8,7.4,8.1,11.1c0.6,35.1,0.6,70.2,0,105.2
		c-0.1,3.7-5.3,7.3-8.2,10.9c-2.5-4-7-8-7.2-12.1C297.4,477.7,297.9,460.4,297.9,443.2z"/>
</g>
</svg>
